<?xml version="1.0" encoding="UTF-8"?>
<!--
  bitwarden-wordmark-white.svg

  Wordmark only, white, for use on dark surfaces. Path is taken verbatim from the official lockup; only the <svg> wrapper and viewBox crop are local. Prefer a full lockup over a standalone wordmark unless the shield is already established elsewhere on the deliverable.

  Source: https://images.ctfassets.net/7rncvj1f8mw7/6RNJEeiUeUvaJFcUXV5R49/e73a356cad20bce2336afcff8829485b/BitwardenLogo.svg

  Do not recolor. For anything bigger than chip scale or anything shareable
  externally, fetch the official lockup at the URL above and use it directly.
-->
<svg
  xmlns="http://www.w3.org/2000/svg"
  viewBox="853 95 440 85"
  role="img"
  aria-label="Bitwarden"
>
  <title>Bitwarden</title>
  <path
    fill="#FFFFFF"
    fill-rule="evenodd"
    d="M886.25,120.65c6.05,0,10.75,2.3,14.21,7.09,3.46,4.7,5.18,11.12,5.18,19.27s-1.73,14.96-5.28,19.56c-3.55,4.7-8.35,6.9-14.4,6.9s-10.66-2.11-14.11-6.52h-.96l-1.82,4.51c-.29.67-.96,1.05-1.63,1.05h-7.68c-.96,0-1.73-.77-1.73-1.73v-67.39c0-.96.77-1.73,1.73-1.73h10.37c.96,0,1.73.77,1.73,1.73v14.76c0,2.11-.19,5.46-.58,10.07h.58c3.17-4.99,8.06-7.57,14.4-7.57ZM881.83,131.87c-3.36,0-5.95,1.05-7.58,3.16-1.54,2.11-2.4,5.66-2.4,10.45v1.53c0,5.46.77,9.39,2.4,11.7,1.63,2.3,4.22,3.55,7.78,3.55,2.78,0,5.18-1.34,6.82-4.03,1.63-2.59,2.5-6.52,2.5-11.41s-.86-8.72-2.5-11.22c-1.73-2.49-4.13-3.74-7.01-3.74ZM928.48,172.61h-10.37c-.96,0-1.73-.77-1.73-1.73v-47.45c0-.96.77-1.73,1.73-1.73h10.37c.96,0,1.73.77,1.73,1.73v47.36c.1.86-.77,1.82-1.73,1.82ZM966.4,162.36c2.01,0,4.41-.38,7.29-1.15.77-.19,1.44.38,1.44,1.15v7.96c0,.48-.29.86-.67,1.05-3.26,1.34-7.39,2.01-12,2.01-5.57,0-9.6-1.34-12.1-4.22-2.5-2.78-3.84-7-3.84-12.56v-24.45h-5.47c-.67,0-1.15-.48-1.15-1.15v-4.51c0-.1.1-.19.1-.29l7.58-4.51,3.74-9.97c.19-.48.58-.77,1.06-.77h6.91c.67,0,1.15.48,1.15,1.15v9.68h13.73c.29,0,.58.29.58.58v8.63c0,.67-.48,1.15-1.15,1.15h-13.05v24.35c0,1.92.58,3.45,1.63,4.31.96,1.05,2.5,1.53,4.22,1.53ZM1031,172.61c-1.34,0-2.4-.86-2.98-2.11l-10.18-30.96c-.67-2.2-1.54-5.56-2.69-9.87h-.29l-.96,3.45-2.02,6.52-10.46,30.96c-.38,1.25-1.54,2.01-2.88,2.01s-2.5-.86-2.88-2.21l-12.77-44.58c-.38-1.34.67-2.78,2.21-2.78h.29c.96,0,1.82.67,2.11,1.63l7.49,27.13c1.82,7.09,3.07,12.27,3.65,15.72h.29c1.73-7.09,3.07-11.79,3.94-14.19l9.7-28.38c.38-1.15,1.44-1.92,2.78-1.92,1.25,0,2.3.77,2.69,1.92l9.02,28.18c2.21,7.19,3.55,11.79,4.03,14.19h.29c.29-1.92,1.44-7.29,3.65-15.91l7.2-26.75c.29-.96,1.15-1.63,2.11-1.63,1.44,0,2.49,1.34,2.11,2.78l-12.1,44.58c-.38,1.34-1.54,2.21-2.98,2.21h-.38ZM1088.02,172.61c-.86,0-1.63-.67-1.73-1.53l-.86-6.33h-.48c-2.5,3.16-4.99,5.46-7.68,6.81-2.59,1.34-5.76,1.92-9.31,1.92-4.9,0-8.64-1.25-11.33-3.74-2.4-2.2-3.74-5.18-3.94-8.92-.38-4.99,1.73-9.78,5.76-12.56,4.13-2.68,9.89-4.31,17.66-4.31l9.41-.29v-3.26c0-4.79-.96-8.24-2.98-10.64-2.02-2.4-4.99-3.55-9.22-3.55s-8.06.96-12.29,2.97c-1.06.48-2.3,0-2.78-1.05-.48-1.05,0-2.3,1.05-2.68,4.8-1.92,9.5-2.97,14.3-2.97,5.47,0,9.5,1.44,12.29,4.31,2.69,2.78,4.03,7.29,4.03,13.13v31.16c-.1.58-.96,1.53-1.92,1.53ZM1068.15,169.35c5.38,0,9.5-1.53,12.48-4.51,3.07-2.97,4.61-7.29,4.61-12.56v-4.79l-8.64.38c-7.01.29-11.9,1.44-14.98,3.26-2.98,1.82-4.51,4.79-4.51,8.63,0,3.07.96,5.56,2.78,7.29,2.11,1.44,4.8,2.3,8.26,2.3ZM1124.98,122.09c1.44,0,2.88.1,4.51.29,1.25.19,2.02,1.34,1.82,2.49s-1.34,1.82-2.5,1.63c-1.44-.19-2.88-.38-4.32-.38-4.22,0-7.68,1.82-10.37,5.37-2.69,3.55-4.03,8.15-4.03,13.52v25.12c0,1.25-.96,2.2-2.21,2.2s-2.21-.96-2.21-2.2v-45.06c0-1.05.86-1.92,1.92-1.92s1.92.77,1.92,1.82l.38,7.09h.29c2.02-3.64,4.22-6.23,6.53-7.67,2.21-1.53,4.99-2.3,8.26-2.3ZM1158.77,122.09c3.55,0,6.72.67,9.31,1.92,2.69,1.25,4.99,3.55,7.01,6.71h.29c-.19-3.93-.29-7.57-.29-11.22v-15.63c0-1.25.96-2.2,2.21-2.2s2.21.96,2.21,2.2v67.01c0,.86-.67,1.53-1.54,1.53-.77,0-1.44-.58-1.54-1.44l-.96-6.23h-.38c-3.74,5.66-9.22,8.44-16.22,8.44s-12-2.11-15.74-6.42c-3.55-4.31-5.47-10.45-5.47-18.6s1.73-15.05,5.38-19.65c3.65-4.12,8.83-6.42,15.74-6.42ZM1158.77,126.21c-5.47,0-9.5,1.92-12.29,5.75-2.69,3.74-4.03,9.2-4.03,16.49,0,14,5.47,20.99,16.41,20.99,5.66,0,9.7-1.63,12.29-4.89,2.69-3.26,3.94-8.63,3.94-16.11v-.77c0-7.67-1.25-13.13-3.94-16.39-2.5-3.45-6.62-5.08-12.38-5.08ZM1216.27,173.48c-7.2,0-12.77-2.2-16.9-6.71-4.03-4.41-6.05-10.64-6.05-18.6s1.92-14.28,5.86-18.98c3.94-4.79,9.12-7.19,15.74-7.19,5.76,0,10.46,2.01,13.73,6.04,3.46,4.03,5.09,9.59,5.09,16.58v3.64h-35.71c.1,6.81,1.63,11.98,4.8,15.63,3.17,3.64,7.58,5.27,13.44,5.27,2.78,0,5.38-.19,7.49-.58,1.54-.29,3.36-.77,5.57-1.53,1.25-.48,2.59.48,2.59,1.82,0,.77-.48,1.53-1.25,1.82-2.3.96-4.51,1.53-6.53,1.92-2.4.67-4.99.86-7.87.86ZM1214.93,126.12c-4.8,0-8.64,1.53-11.52,4.7-2.88,3.07-4.51,7.67-5.09,13.52h30.72c0-5.66-1.25-10.26-3.74-13.42-2.5-3.16-5.95-4.79-10.37-4.79ZM1284.43,172.61c-1.25,0-2.21-.96-2.21-2.21v-30.01c0-4.99-1.06-8.63-3.07-10.83-2.21-2.2-5.38-3.45-9.79-3.45-5.95,0-10.27,1.44-12.96,4.51-2.69,2.97-4.22,7.86-4.22,14.48v25.12c0,1.25-.96,2.2-2.21,2.2s-2.21-.96-2.21-2.2v-45.15c0-1.15.86-2.01,2.02-2.01,1.06,0,1.82.77,2.02,1.73l.58,4.99h.29c3.26-5.18,8.93-7.77,17.18-7.77,11.23,0,16.89,6.04,16.89,18.12v30.1c-.1,1.34-1.15,2.4-2.3,2.4ZM923.4,100.91c-4.51,0-8.16,3.45-8.16,7.77v.77c0,4.22,3.74,7.77,8.16,7.77s8.16-3.55,8.16-7.77v-.67c0-4.41-3.74-7.86-8.16-7.86Z"
  />
</svg>
