<?xml version="1.0" encoding="UTF-8"?>
<!--
  bitwarden-lockup-vertical-white.svg

  Vertical secondary lockup (shield stacked above wordmark), white, for use on dark surfaces. Both paths are taken verbatim from the official lockup; only the <svg> wrapper and viewBox crop are local.

  Source: https://images.ctfassets.net/7rncvj1f8mw7/6RNJEeiUeUvaJFcUXV5R49/e73a356cad20bce2336afcff8829485b/BitwardenLogo.svg

  Do not recolor. For anything bigger than chip scale or anything shareable
  externally, fetch the official lockup at the URL above and use it directly.
-->
<svg
  xmlns="http://www.w3.org/2000/svg"
  viewBox="883 250 280 175"
  role="img"
  aria-label="Bitwarden"
>
  <title>Bitwarden</title>
  <path
    fill="#FFFFFF"
    fill-rule="evenodd"
    d="M1054.33,312.78v-44.48h-31.05v79.02c5.5-2.92,10.42-6.09,14.77-9.52,10.86-8.53,16.29-16.86,16.29-25.02ZM1067.64,259.41v53.38c0,3.98-.77,7.93-2.32,11.85-1.55,3.91-3.47,7.39-5.75,10.42-2.29,3.03-5.01,5.99-8.18,8.86s-6.09,5.26-8.77,7.16c-2.68,1.9-5.48,3.69-8.39,5.39-2.91,1.69-4.98,2.84-6.2,3.44-1.22.6-2.21,1.07-2.95,1.39-.55.28-1.16.42-1.8.42s-1.25-.14-1.8-.42c-.74-.32-1.72-.79-2.95-1.39-1.22-.6-3.29-1.75-6.2-3.44-2.91-1.69-5.71-3.49-8.39-5.39-2.68-1.9-5.6-4.29-8.77-7.16-3.17-2.87-5.89-5.83-8.18-8.86-2.29-3.03-4.21-6.51-5.75-10.42-1.55-3.92-2.32-7.87-2.32-11.85v-53.38c0-1.2.44-2.25,1.32-3.13.88-.88,1.92-1.32,3.12-1.32h79.86c1.2,0,2.24.44,3.12,1.32.88.88,1.32,1.92,1.32,3.13Z"
  />
  <path
    fill="#FFFFFF"
    fill-rule="evenodd"
    d="M906.42,386.98c3.79,0,6.73,1.45,8.9,4.48,2.16,2.96,3.25,7.02,3.25,12.16s-1.08,9.44-3.31,12.34c-2.22,2.96-5.23,4.36-9.02,4.36s-6.67-1.33-8.84-4.11h-.6l-1.14,2.84c-.18.42-.6.67-1.02.67h-4.81c-.6,0-1.08-.48-1.08-1.09v-42.53c0-.6.48-1.09,1.08-1.09h6.49c.6,0,1.08.48,1.08,1.09v9.32c0,1.33-.12,3.45-.36,6.35h.36c1.98-3.15,5.05-4.78,9.02-4.78ZM903.66,394.06c-2.1,0-3.73.67-4.75,2-.96,1.33-1.5,3.57-1.5,6.59v.97c0,3.45.48,5.93,1.5,7.38,1.02,1.45,2.65,2.24,4.87,2.24,1.74,0,3.25-.85,4.27-2.54,1.02-1.63,1.56-4.11,1.56-7.2s-.54-5.51-1.56-7.08c-1.08-1.57-2.59-2.36-4.39-2.36ZM932.88,419.77h-6.49c-.6,0-1.08-.48-1.08-1.09v-29.95c0-.6.48-1.09,1.08-1.09h6.49c.6,0,1.08.48,1.08,1.09v29.89c.06.54-.48,1.15-1.08,1.15ZM956.63,413.3c1.26,0,2.77-.24,4.57-.73.48-.12.9.24.9.73v5.02c0,.3-.18.54-.42.67-2.04.85-4.63,1.27-7.52,1.27-3.49,0-6.01-.85-7.58-2.66-1.56-1.75-2.41-4.42-2.41-7.93v-15.43h-3.43c-.42,0-.72-.3-.72-.73v-2.84c0-.06.06-.12.06-.18l4.75-2.84,2.35-6.29c.12-.3.36-.48.66-.48h4.33c.42,0,.72.3.72.73v6.11h8.6c.18,0,.36.18.36.36v5.44c0,.42-.3.73-.72.73h-8.18v15.37c0,1.21.36,2.18,1.02,2.72.6.67,1.56.97,2.65.97ZM997.1,419.77c-.84,0-1.5-.54-1.86-1.33l-6.37-19.54c-.42-1.39-.96-3.51-1.68-6.23h-.18l-.6,2.18-1.26,4.11-6.55,19.54c-.24.79-.96,1.27-1.8,1.27s-1.56-.54-1.8-1.39l-8-28.13c-.24-.85.42-1.75,1.38-1.75h.18c.6,0,1.14.42,1.32,1.03l4.69,17.12c1.14,4.48,1.92,7.74,2.29,9.92h.18c1.08-4.48,1.92-7.44,2.47-8.95l6.07-17.91c.24-.73.9-1.21,1.74-1.21.78,0,1.44.48,1.68,1.21l5.65,17.79c1.38,4.54,2.23,7.44,2.53,8.95h.18c.18-1.21.9-4.6,2.28-10.04l4.51-16.88c.18-.61.72-1.03,1.32-1.03.9,0,1.56.85,1.32,1.75l-7.58,28.13c-.24.85-.96,1.39-1.86,1.39h-.24ZM1032.82,419.77c-.54,0-1.02-.42-1.08-.97l-.54-3.99h-.3c-1.56,2-3.13,3.45-4.81,4.3-1.62.85-3.61,1.21-5.83,1.21-3.07,0-5.41-.79-7.1-2.36-1.5-1.39-2.35-3.27-2.47-5.63-.24-3.15,1.08-6.17,3.61-7.93,2.59-1.69,6.19-2.72,11.06-2.72l5.89-.18v-2.06c0-3.02-.6-5.2-1.86-6.72-1.26-1.51-3.13-2.24-5.77-2.24s-5.05.61-7.7,1.88c-.66.3-1.44,0-1.74-.67-.3-.67,0-1.45.66-1.69,3.01-1.21,5.95-1.88,8.96-1.88,3.43,0,5.95.91,7.7,2.72,1.68,1.75,2.53,4.6,2.53,8.29v19.66c-.06.36-.6.97-1.2.97ZM1020.37,417.71c3.37,0,5.95-.97,7.82-2.84,1.92-1.88,2.89-4.6,2.89-7.93v-3.02l-5.41.24c-4.39.18-7.46.91-9.38,2.06-1.86,1.15-2.83,3.02-2.83,5.44,0,1.94.6,3.51,1.74,4.6,1.32.91,3.01,1.45,5.17,1.45ZM1055.97,387.89c.9,0,1.8.06,2.83.18.78.12,1.26.85,1.14,1.57-.12.73-.84,1.15-1.56,1.03-.9-.12-1.8-.24-2.71-.24-2.65,0-4.81,1.15-6.49,3.39-1.68,2.24-2.53,5.14-2.53,8.53v15.85c0,.79-.6,1.39-1.38,1.39s-1.38-.61-1.38-1.39v-28.43c0-.67.54-1.21,1.2-1.21s1.2.48,1.2,1.15l.24,4.48h.18c1.26-2.3,2.65-3.93,4.09-4.84,1.38-.97,3.13-1.45,5.17-1.45ZM1077.13,387.89c2.23,0,4.21.42,5.83,1.21,1.68.79,3.13,2.24,4.39,4.24h.18c-.12-2.48-.18-4.78-.18-7.08v-9.86c0-.79.6-1.39,1.38-1.39s1.38.61,1.38,1.39v42.29c0,.54-.42.97-.96.97-.48,0-.9-.36-.96-.91l-.6-3.93h-.24c-2.35,3.57-5.77,5.32-10.16,5.32s-7.52-1.33-9.86-4.05c-2.23-2.72-3.43-6.59-3.43-11.74s1.08-9.5,3.37-12.4c2.29-2.6,5.53-4.05,9.86-4.05ZM1077.13,390.49c-3.43,0-5.95,1.21-7.7,3.63-1.68,2.36-2.53,5.81-2.53,10.41,0,8.83,3.43,13.25,10.28,13.25,3.55,0,6.07-1.03,7.7-3.09,1.68-2.06,2.47-5.44,2.47-10.16v-.48c0-4.84-.78-8.29-2.47-10.34-1.56-2.18-4.15-3.21-7.76-3.21ZM1113.15,420.32c-4.51,0-8-1.39-10.58-4.23-2.53-2.78-3.79-6.72-3.79-11.74s1.2-9.01,3.67-11.98c2.47-3.02,5.71-4.54,9.86-4.54,3.61,0,6.55,1.27,8.6,3.81,2.16,2.54,3.19,6.05,3.19,10.47v2.3h-22.37c.06,4.3,1.02,7.56,3.01,9.86,1.98,2.3,4.75,3.33,8.42,3.33,1.74,0,3.37-.12,4.69-.36.96-.18,2.1-.48,3.49-.97.78-.3,1.62.3,1.62,1.15,0,.48-.3.97-.78,1.15-1.44.6-2.83.97-4.09,1.21-1.5.42-3.13.54-4.93.54ZM1112.31,390.43c-3.01,0-5.41.97-7.22,2.96-1.8,1.94-2.83,4.84-3.19,8.53h19.24c0-3.57-.78-6.47-2.35-8.47-1.56-2-3.73-3.03-6.49-3.03ZM1155.84,419.77c-.78,0-1.38-.61-1.38-1.39v-18.94c0-3.15-.66-5.44-1.92-6.84-1.38-1.39-3.37-2.18-6.13-2.18-3.73,0-6.43.91-8.12,2.84-1.68,1.88-2.65,4.96-2.65,9.14v15.85c0,.79-.6,1.39-1.38,1.39s-1.38-.61-1.38-1.39v-28.49c0-.73.54-1.27,1.26-1.27.66,0,1.14.48,1.26,1.09l.36,3.15h.18c2.04-3.27,5.59-4.9,10.76-4.9,7.03,0,10.58,3.81,10.58,11.43v19c-.06.85-.72,1.51-1.44,1.51ZM929.69,374.52c-2.83,0-5.11,2.18-5.11,4.9v.48c0,2.66,2.35,4.9,5.11,4.9s5.11-2.24,5.11-4.9v-.42c0-2.78-2.35-4.96-5.11-4.96Z"
  />
</svg>
