<?xml version="1.0" encoding="UTF-8"?>
<svg id="Layer_1" xmlns="http://www.w3.org/2000/svg" version="1.1" viewBox="0 0 1377.45 792">
  <!-- Generator: Adobe Illustrator 30.1.0, SVG Export Plug-In . SVG Version: 2.1.1 Build 136)  -->
  <defs>
    <style>
      .st0, .st1 {
        fill: #fff;
      }

      .st0, .st2 {
        fill-rule: evenodd;
      }

      .st3, .st2 {
        fill: #175ddc;
      }

      .st4 {
        fill: #878383;
      }
    </style>
  </defs>
  <rect class="st4" x="668.58" width="708.87" height="792"/>
  <path class="st2" d="M208.33,386.98c3.79,0,6.73,1.45,8.9,4.48,2.16,2.96,3.25,7.02,3.25,12.16s-1.08,9.44-3.31,12.34c-2.22,2.96-5.23,4.36-9.02,4.36s-6.67-1.33-8.84-4.11h-.6l-1.14,2.84c-.18.42-.6.67-1.02.67h-4.81c-.6,0-1.08-.48-1.08-1.09v-42.53c0-.6.48-1.09,1.08-1.09h6.49c.6,0,1.08.48,1.08,1.09v9.32c0,1.33-.12,3.45-.36,6.35h.36c1.98-3.15,5.05-4.78,9.02-4.78ZM205.56,394.06c-2.1,0-3.73.67-4.75,2-.96,1.33-1.5,3.57-1.5,6.59v.97c0,3.45.48,5.93,1.5,7.38,1.02,1.45,2.65,2.24,4.87,2.24,1.74,0,3.25-.85,4.27-2.54,1.02-1.63,1.56-4.11,1.56-7.2s-.54-5.51-1.56-7.08c-1.08-1.57-2.59-2.36-4.39-2.36ZM234.79,419.77h-6.49c-.6,0-1.08-.48-1.08-1.09v-29.95c0-.6.48-1.09,1.08-1.09h6.49c.6,0,1.08.48,1.08,1.09v29.89c.06.54-.48,1.15-1.08,1.15ZM258.54,413.3c1.26,0,2.77-.24,4.57-.73.48-.12.9.24.9.73v5.02c0,.3-.18.54-.42.67-2.04.85-4.63,1.27-7.52,1.27-3.49,0-6.01-.85-7.58-2.66-1.56-1.75-2.41-4.42-2.41-7.93v-15.43h-3.43c-.42,0-.72-.3-.72-.73v-2.84c0-.06.06-.12.06-.18l4.75-2.84,2.35-6.29c.12-.3.36-.48.66-.48h4.33c.42,0,.72.3.72.73v6.11h8.6c.18,0,.36.18.36.36v5.44c0,.42-.3.73-.72.73h-8.18v15.37c0,1.21.36,2.18,1.02,2.72.6.67,1.56.97,2.65.97ZM299.01,419.77c-.84,0-1.5-.54-1.86-1.33l-6.37-19.54c-.42-1.39-.96-3.51-1.68-6.23h-.18l-.6,2.18-1.26,4.11-6.55,19.54c-.24.79-.96,1.27-1.8,1.27s-1.56-.54-1.8-1.39l-8-28.13c-.24-.85.42-1.75,1.38-1.75h.18c.6,0,1.14.42,1.32,1.03l4.69,17.12c1.14,4.48,1.92,7.74,2.29,9.92h.18c1.08-4.48,1.92-7.44,2.47-8.95l6.07-17.91c.24-.73.9-1.21,1.74-1.21.78,0,1.44.48,1.68,1.21l5.65,17.79c1.38,4.54,2.23,7.44,2.53,8.95h.18c.18-1.21.9-4.6,2.28-10.04l4.51-16.88c.18-.61.72-1.03,1.32-1.03.9,0,1.56.85,1.32,1.75l-7.58,28.13c-.24.85-.96,1.39-1.86,1.39h-.24ZM334.72,419.77c-.54,0-1.02-.42-1.08-.97l-.54-3.99h-.3c-1.56,2-3.13,3.45-4.81,4.3-1.62.85-3.61,1.21-5.83,1.21-3.07,0-5.41-.79-7.1-2.36-1.5-1.39-2.35-3.27-2.47-5.63-.24-3.15,1.08-6.17,3.61-7.93,2.59-1.69,6.19-2.72,11.06-2.72l5.89-.18v-2.06c0-3.02-.6-5.2-1.86-6.72-1.26-1.51-3.13-2.24-5.77-2.24s-5.05.61-7.7,1.88c-.66.3-1.44,0-1.74-.67-.3-.67,0-1.45.66-1.69,3.01-1.21,5.95-1.88,8.96-1.88,3.43,0,5.95.91,7.7,2.72,1.68,1.75,2.53,4.6,2.53,8.29v19.66c-.06.36-.6.97-1.2.97ZM322.28,417.71c3.37,0,5.95-.97,7.82-2.84,1.92-1.88,2.89-4.6,2.89-7.93v-3.02l-5.41.24c-4.39.18-7.46.91-9.38,2.06-1.86,1.15-2.83,3.02-2.83,5.44,0,1.94.6,3.51,1.74,4.6,1.32.91,3.01,1.45,5.17,1.45ZM357.87,387.89c.9,0,1.8.06,2.83.18.78.12,1.26.85,1.14,1.57-.12.73-.84,1.15-1.56,1.03-.9-.12-1.8-.24-2.71-.24-2.65,0-4.81,1.15-6.49,3.39-1.68,2.24-2.53,5.14-2.53,8.53v15.85c0,.79-.6,1.39-1.38,1.39s-1.38-.61-1.38-1.39v-28.43c0-.67.54-1.21,1.2-1.21s1.2.48,1.2,1.15l.24,4.48h.18c1.26-2.3,2.65-3.93,4.09-4.84,1.38-.97,3.13-1.45,5.17-1.45ZM379.04,387.89c2.23,0,4.21.42,5.83,1.21,1.68.79,3.13,2.24,4.39,4.24h.18c-.12-2.48-.18-4.78-.18-7.08v-9.86c0-.79.6-1.39,1.38-1.39s1.38.61,1.38,1.39v42.29c0,.54-.42.97-.96.97-.48,0-.9-.36-.96-.91l-.6-3.93h-.24c-2.35,3.57-5.77,5.32-10.16,5.32s-7.52-1.33-9.86-4.05c-2.23-2.72-3.43-6.59-3.43-11.74s1.08-9.5,3.37-12.4c2.29-2.6,5.53-4.05,9.86-4.05ZM379.04,390.49c-3.43,0-5.95,1.21-7.7,3.63-1.68,2.36-2.53,5.81-2.53,10.41,0,8.83,3.43,13.25,10.28,13.25,3.55,0,6.07-1.03,7.7-3.09,1.68-2.06,2.47-5.44,2.47-10.16v-.48c0-4.84-.78-8.29-2.47-10.34-1.56-2.18-4.15-3.21-7.76-3.21ZM415.06,420.32c-4.51,0-8-1.39-10.58-4.23-2.53-2.78-3.79-6.72-3.79-11.74s1.2-9.01,3.67-11.98c2.47-3.02,5.71-4.54,9.86-4.54,3.61,0,6.55,1.27,8.6,3.81,2.16,2.54,3.19,6.05,3.19,10.47v2.3h-22.37c.06,4.3,1.02,7.56,3.01,9.86,1.98,2.3,4.75,3.33,8.42,3.33,1.74,0,3.37-.12,4.69-.36.96-.18,2.1-.48,3.49-.97.78-.3,1.62.3,1.62,1.15,0,.48-.3.97-.78,1.15-1.44.6-2.83.97-4.09,1.21-1.5.42-3.13.54-4.93.54ZM414.21,390.43c-3.01,0-5.41.97-7.22,2.96-1.8,1.94-2.83,4.84-3.19,8.53h19.24c0-3.57-.78-6.47-2.35-8.47-1.56-2-3.73-3.03-6.49-3.03ZM457.75,419.77c-.78,0-1.38-.61-1.38-1.39v-18.94c0-3.15-.66-5.44-1.92-6.84-1.38-1.39-3.37-2.18-6.13-2.18-3.73,0-6.43.91-8.12,2.84-1.68,1.88-2.65,4.96-2.65,9.14v15.85c0,.79-.6,1.39-1.38,1.39s-1.38-.61-1.38-1.39v-28.49c0-.73.54-1.27,1.26-1.27.66,0,1.14.48,1.26,1.09l.36,3.15h.18c2.04-3.27,5.59-4.9,10.76-4.9,7.03,0,10.58,3.81,10.58,11.43v19c-.06.85-.72,1.51-1.44,1.51ZM231.6,374.52c-2.83,0-5.11,2.18-5.11,4.9v.48c0,2.66,2.35,4.9,5.11,4.9s5.11-2.24,5.11-4.9v-.42c0-2.78-2.35-4.96-5.11-4.96Z"/>
  <path class="st3" d="M356.23,312.78v-44.48h-31.05v79.02c5.5-2.92,10.42-6.09,14.77-9.52,10.86-8.53,16.29-16.86,16.29-25.02ZM369.54,259.41v53.38c0,3.98-.77,7.93-2.32,11.85-1.55,3.91-3.47,7.39-5.75,10.42-2.29,3.03-5.01,5.99-8.18,8.86s-6.09,5.26-8.77,7.16c-2.68,1.9-5.48,3.69-8.39,5.39-2.91,1.69-4.98,2.84-6.2,3.44-1.22.6-2.21,1.07-2.95,1.39-.55.28-1.16.42-1.8.42s-1.25-.14-1.8-.42c-.74-.32-1.72-.79-2.95-1.39-1.22-.6-3.29-1.75-6.2-3.44-2.91-1.69-5.71-3.49-8.39-5.39-2.68-1.9-5.6-4.29-8.77-7.16-3.17-2.87-5.89-5.83-8.18-8.86-2.29-3.03-4.21-6.51-5.75-10.42-1.55-3.92-2.32-7.87-2.32-11.85v-53.38c0-1.2.44-2.25,1.32-3.13.88-.88,1.92-1.32,3.12-1.32h79.86c1.2,0,2.24.44,3.12,1.32.88.88,1.32,1.92,1.32,3.13Z"/>
  <path class="st3" d="M374.83,612.54v-71.41h-49.91v126.87c8.84-4.69,16.75-9.78,23.73-15.29,17.45-13.69,26.18-27.08,26.18-40.17ZM396.22,526.84v85.7c0,6.4-1.24,12.74-3.73,19.02-2.49,6.29-5.57,11.86-9.25,16.74-3.68,4.87-8.06,9.61-13.15,14.23-5.09,4.61-9.78,8.44-14.09,11.49-4.31,3.05-8.8,5.93-13.48,8.65-4.68,2.72-8,4.56-9.97,5.52-1.97.97-3.55,1.71-4.73,2.23-.89.45-1.86.67-2.9.67s-2.01-.22-2.9-.67c-1.19-.52-2.77-1.26-4.73-2.23-1.97-.97-5.29-2.81-9.97-5.52-4.68-2.71-9.17-5.6-13.48-8.65-4.31-3.05-9.01-6.88-14.09-11.49-5.09-4.61-9.47-9.35-13.15-14.23-3.68-4.87-6.76-10.45-9.25-16.74-2.49-6.29-3.73-12.63-3.73-19.02v-85.7c0-1.93.71-3.61,2.12-5.02,1.41-1.41,3.08-2.12,5.01-2.12h128.34c1.93,0,3.6.71,5.01,2.12,1.41,1.41,2.12,3.09,2.12,5.02Z"/>
  <path class="st2" d="M188.15,120.65c6.05,0,10.75,2.3,14.21,7.09,3.46,4.7,5.18,11.12,5.18,19.27s-1.73,14.96-5.28,19.56c-3.55,4.7-8.35,6.9-14.4,6.9s-10.66-2.11-14.11-6.52h-.96l-1.82,4.51c-.29.67-.96,1.05-1.63,1.05h-7.68c-.96,0-1.73-.77-1.73-1.73v-67.39c0-.96.77-1.73,1.73-1.73h10.37c.96,0,1.73.77,1.73,1.73v14.76c0,2.11-.19,5.46-.58,10.07h.58c3.17-4.99,8.06-7.57,14.4-7.57ZM183.74,131.87c-3.36,0-5.95,1.05-7.58,3.16-1.54,2.11-2.4,5.66-2.4,10.45v1.53c0,5.46.77,9.39,2.4,11.7,1.63,2.3,4.22,3.55,7.78,3.55,2.78,0,5.18-1.34,6.82-4.03,1.63-2.59,2.5-6.52,2.5-11.41s-.86-8.72-2.5-11.22c-1.73-2.49-4.13-3.74-7.01-3.74ZM230.39,172.61h-10.37c-.96,0-1.73-.77-1.73-1.73v-47.45c0-.96.77-1.73,1.73-1.73h10.37c.96,0,1.73.77,1.73,1.73v47.36c.1.86-.77,1.82-1.73,1.82ZM268.31,162.36c2.01,0,4.41-.38,7.29-1.15.77-.19,1.44.38,1.44,1.15v7.96c0,.48-.29.86-.67,1.05-3.26,1.34-7.39,2.01-12,2.01-5.57,0-9.6-1.34-12.1-4.22-2.5-2.78-3.84-7-3.84-12.56v-24.45h-5.47c-.67,0-1.15-.48-1.15-1.15v-4.51c0-.1.1-.19.1-.29l7.58-4.51,3.74-9.97c.19-.48.58-.77,1.06-.77h6.91c.67,0,1.15.48,1.15,1.15v9.68h13.73c.29,0,.58.29.58.58v8.63c0,.67-.48,1.15-1.15,1.15h-13.05v24.35c0,1.92.58,3.45,1.63,4.31.96,1.05,2.5,1.53,4.22,1.53ZM332.91,172.61c-1.34,0-2.4-.86-2.98-2.11l-10.18-30.96c-.67-2.2-1.54-5.56-2.69-9.87h-.29l-.96,3.45-2.02,6.52-10.46,30.96c-.38,1.25-1.54,2.01-2.88,2.01s-2.5-.86-2.88-2.21l-12.77-44.58c-.38-1.34.67-2.78,2.21-2.78h.29c.96,0,1.82.67,2.11,1.63l7.49,27.13c1.82,7.09,3.07,12.27,3.65,15.72h.29c1.73-7.09,3.07-11.79,3.94-14.19l9.7-28.38c.38-1.15,1.44-1.92,2.78-1.92,1.25,0,2.3.77,2.69,1.92l9.02,28.18c2.21,7.19,3.55,11.79,4.03,14.19h.29c.29-1.92,1.44-7.29,3.65-15.91l7.2-26.75c.29-.96,1.15-1.63,2.11-1.63,1.44,0,2.49,1.34,2.11,2.78l-12.1,44.58c-.38,1.34-1.54,2.21-2.98,2.21h-.38ZM389.93,172.61c-.86,0-1.63-.67-1.73-1.53l-.86-6.33h-.48c-2.5,3.16-4.99,5.46-7.68,6.81-2.59,1.34-5.76,1.92-9.31,1.92-4.9,0-8.64-1.25-11.33-3.74-2.4-2.2-3.74-5.18-3.94-8.92-.38-4.99,1.73-9.78,5.76-12.56,4.13-2.68,9.89-4.31,17.66-4.31l9.41-.29v-3.26c0-4.79-.96-8.24-2.98-10.64-2.02-2.4-4.99-3.55-9.22-3.55s-8.06.96-12.29,2.97c-1.06.48-2.3,0-2.78-1.05-.48-1.05,0-2.3,1.05-2.68,4.8-1.92,9.5-2.97,14.3-2.97,5.47,0,9.5,1.44,12.29,4.31,2.69,2.78,4.03,7.29,4.03,13.13v31.16c-.1.58-.96,1.53-1.92,1.53ZM370.06,169.35c5.38,0,9.5-1.53,12.48-4.51,3.07-2.97,4.61-7.29,4.61-12.56v-4.79l-8.64.38c-7.01.29-11.9,1.44-14.98,3.26-2.98,1.82-4.51,4.79-4.51,8.63,0,3.07.96,5.56,2.78,7.29,2.11,1.44,4.8,2.3,8.26,2.3ZM426.89,122.09c1.44,0,2.88.1,4.51.29,1.25.19,2.02,1.34,1.82,2.49s-1.34,1.82-2.5,1.63c-1.44-.19-2.88-.38-4.32-.38-4.22,0-7.68,1.82-10.37,5.37-2.69,3.55-4.03,8.15-4.03,13.52v25.12c0,1.25-.96,2.2-2.21,2.2s-2.21-.96-2.21-2.2v-45.06c0-1.05.86-1.92,1.92-1.92s1.92.77,1.92,1.82l.38,7.09h.29c2.02-3.64,4.22-6.23,6.53-7.67,2.21-1.53,4.99-2.3,8.26-2.3ZM460.68,122.09c3.55,0,6.72.67,9.31,1.92,2.69,1.25,4.99,3.55,7.01,6.71h.29c-.19-3.93-.29-7.57-.29-11.22v-15.63c0-1.25.96-2.2,2.21-2.2s2.21.96,2.21,2.2v67.01c0,.86-.67,1.53-1.54,1.53-.77,0-1.44-.58-1.54-1.44l-.96-6.23h-.38c-3.74,5.66-9.22,8.44-16.22,8.44s-12-2.11-15.74-6.42c-3.55-4.31-5.47-10.45-5.47-18.6s1.73-15.05,5.38-19.65c3.65-4.12,8.83-6.42,15.74-6.42ZM460.68,126.21c-5.47,0-9.5,1.92-12.29,5.75-2.69,3.74-4.03,9.2-4.03,16.49,0,14,5.47,20.99,16.41,20.99,5.66,0,9.7-1.63,12.29-4.89,2.69-3.26,3.94-8.63,3.94-16.11v-.77c0-7.67-1.25-13.13-3.94-16.39-2.5-3.45-6.62-5.08-12.38-5.08ZM518.18,173.48c-7.2,0-12.77-2.2-16.9-6.71-4.03-4.41-6.05-10.64-6.05-18.6s1.92-14.28,5.86-18.98c3.94-4.79,9.12-7.19,15.74-7.19,5.76,0,10.46,2.01,13.73,6.04,3.46,4.03,5.09,9.59,5.09,16.58v3.64h-35.71c.1,6.81,1.63,11.98,4.8,15.63,3.17,3.64,7.58,5.27,13.44,5.27,2.78,0,5.38-.19,7.49-.58,1.54-.29,3.36-.77,5.57-1.53,1.25-.48,2.59.48,2.59,1.82,0,.77-.48,1.53-1.25,1.82-2.3.96-4.51,1.53-6.53,1.92-2.4.67-4.99.86-7.87.86ZM516.83,126.12c-4.8,0-8.64,1.53-11.52,4.7-2.88,3.07-4.51,7.67-5.09,13.52h30.72c0-5.66-1.25-10.26-3.74-13.42-2.5-3.16-5.95-4.79-10.37-4.79ZM586.33,172.61c-1.25,0-2.21-.96-2.21-2.21v-30.01c0-4.99-1.06-8.63-3.07-10.83-2.21-2.2-5.38-3.45-9.79-3.45-5.95,0-10.27,1.44-12.96,4.51-2.69,2.97-4.22,7.86-4.22,14.48v25.12c0,1.25-.96,2.2-2.21,2.2s-2.21-.96-2.21-2.2v-45.15c0-1.15.86-2.01,2.02-2.01,1.06,0,1.82.77,2.02,1.73l.58,4.99h.29c3.26-5.18,8.93-7.77,17.18-7.77,11.23,0,16.89,6.04,16.89,18.12v30.1c-.1,1.34-1.15,2.4-2.3,2.4ZM225.3,100.91c-4.51,0-8.16,3.45-8.16,7.77v.77c0,4.22,3.74,7.77,8.16,7.77s8.16-3.55,8.16-7.77v-.67c0-4.41-3.74-7.86-8.16-7.86Z"/>
  <path class="st3" d="M119.48,146.15v-34.28h-23.99v60.9c4.25-2.25,8.05-4.7,11.41-7.34,8.39-6.57,12.59-13,12.59-19.28ZM129.77,105.02v41.13c0,3.07-.6,6.11-1.79,9.13-1.2,3.02-2.68,5.7-4.45,8.03-1.77,2.34-3.87,4.62-6.32,6.83s-4.7,4.05-6.78,5.52c-2.07,1.46-4.23,2.85-6.48,4.15-2.25,1.3-3.85,2.19-4.79,2.65-.95.46-1.71.82-2.28,1.07-.43.21-.89.32-1.39.32s-.96-.11-1.39-.32c-.57-.25-1.33-.61-2.28-1.07-.95-.46-2.54-1.35-4.79-2.65-2.25-1.3-4.41-2.69-6.48-4.15-2.07-1.46-4.33-3.3-6.78-5.52s-4.55-4.49-6.32-6.83-3.25-5.02-4.45-8.03c-1.2-3.02-1.79-6.06-1.79-9.13v-41.13c0-.93.34-1.73,1.02-2.41.68-.68,1.48-1.02,2.41-1.02h61.7c.93,0,1.73.34,2.41,1.02.68.68,1.02,1.48,1.02,2.41Z"/>
  <path class="st0" d="M906.42,386.98c3.79,0,6.73,1.45,8.9,4.48,2.16,2.96,3.25,7.02,3.25,12.16s-1.08,9.44-3.31,12.34c-2.22,2.96-5.23,4.36-9.02,4.36s-6.67-1.33-8.84-4.11h-.6l-1.14,2.84c-.18.42-.6.67-1.02.67h-4.81c-.6,0-1.08-.48-1.08-1.09v-42.53c0-.6.48-1.09,1.08-1.09h6.49c.6,0,1.08.48,1.08,1.09v9.32c0,1.33-.12,3.45-.36,6.35h.36c1.98-3.15,5.05-4.78,9.02-4.78ZM903.66,394.06c-2.1,0-3.73.67-4.75,2-.96,1.33-1.5,3.57-1.5,6.59v.97c0,3.45.48,5.93,1.5,7.38,1.02,1.45,2.65,2.24,4.87,2.24,1.74,0,3.25-.85,4.27-2.54,1.02-1.63,1.56-4.11,1.56-7.2s-.54-5.51-1.56-7.08c-1.08-1.57-2.59-2.36-4.39-2.36ZM932.88,419.77h-6.49c-.6,0-1.08-.48-1.08-1.09v-29.95c0-.6.48-1.09,1.08-1.09h6.49c.6,0,1.08.48,1.08,1.09v29.89c.06.54-.48,1.15-1.08,1.15ZM956.63,413.3c1.26,0,2.77-.24,4.57-.73.48-.12.9.24.9.73v5.02c0,.3-.18.54-.42.67-2.04.85-4.63,1.27-7.52,1.27-3.49,0-6.01-.85-7.58-2.66-1.56-1.75-2.41-4.42-2.41-7.93v-15.43h-3.43c-.42,0-.72-.3-.72-.73v-2.84c0-.06.06-.12.06-.18l4.75-2.84,2.35-6.29c.12-.3.36-.48.66-.48h4.33c.42,0,.72.3.72.73v6.11h8.6c.18,0,.36.18.36.36v5.44c0,.42-.3.73-.72.73h-8.18v15.37c0,1.21.36,2.18,1.02,2.72.6.67,1.56.97,2.65.97ZM997.1,419.77c-.84,0-1.5-.54-1.86-1.33l-6.37-19.54c-.42-1.39-.96-3.51-1.68-6.23h-.18l-.6,2.18-1.26,4.11-6.55,19.54c-.24.79-.96,1.27-1.8,1.27s-1.56-.54-1.8-1.39l-8-28.13c-.24-.85.42-1.75,1.38-1.75h.18c.6,0,1.14.42,1.32,1.03l4.69,17.12c1.14,4.48,1.92,7.74,2.29,9.92h.18c1.08-4.48,1.92-7.44,2.47-8.95l6.07-17.91c.24-.73.9-1.21,1.74-1.21.78,0,1.44.48,1.68,1.21l5.65,17.79c1.38,4.54,2.23,7.44,2.53,8.95h.18c.18-1.21.9-4.6,2.28-10.04l4.51-16.88c.18-.61.72-1.03,1.32-1.03.9,0,1.56.85,1.32,1.75l-7.58,28.13c-.24.85-.96,1.39-1.86,1.39h-.24ZM1032.82,419.77c-.54,0-1.02-.42-1.08-.97l-.54-3.99h-.3c-1.56,2-3.13,3.45-4.81,4.3-1.62.85-3.61,1.21-5.83,1.21-3.07,0-5.41-.79-7.1-2.36-1.5-1.39-2.35-3.27-2.47-5.63-.24-3.15,1.08-6.17,3.61-7.93,2.59-1.69,6.19-2.72,11.06-2.72l5.89-.18v-2.06c0-3.02-.6-5.2-1.86-6.72-1.26-1.51-3.13-2.24-5.77-2.24s-5.05.61-7.7,1.88c-.66.3-1.44,0-1.74-.67-.3-.67,0-1.45.66-1.69,3.01-1.21,5.95-1.88,8.96-1.88,3.43,0,5.95.91,7.7,2.72,1.68,1.75,2.53,4.6,2.53,8.29v19.66c-.06.36-.6.97-1.2.97ZM1020.37,417.71c3.37,0,5.95-.97,7.82-2.84,1.92-1.88,2.89-4.6,2.89-7.93v-3.02l-5.41.24c-4.39.18-7.46.91-9.38,2.06-1.86,1.15-2.83,3.02-2.83,5.44,0,1.94.6,3.51,1.74,4.6,1.32.91,3.01,1.45,5.17,1.45ZM1055.97,387.89c.9,0,1.8.06,2.83.18.78.12,1.26.85,1.14,1.57-.12.73-.84,1.15-1.56,1.03-.9-.12-1.8-.24-2.71-.24-2.65,0-4.81,1.15-6.49,3.39-1.68,2.24-2.53,5.14-2.53,8.53v15.85c0,.79-.6,1.39-1.38,1.39s-1.38-.61-1.38-1.39v-28.43c0-.67.54-1.21,1.2-1.21s1.2.48,1.2,1.15l.24,4.48h.18c1.26-2.3,2.65-3.93,4.09-4.84,1.38-.97,3.13-1.45,5.17-1.45ZM1077.13,387.89c2.23,0,4.21.42,5.83,1.21,1.68.79,3.13,2.24,4.39,4.24h.18c-.12-2.48-.18-4.78-.18-7.08v-9.86c0-.79.6-1.39,1.38-1.39s1.38.61,1.38,1.39v42.29c0,.54-.42.97-.96.97-.48,0-.9-.36-.96-.91l-.6-3.93h-.24c-2.35,3.57-5.77,5.32-10.16,5.32s-7.52-1.33-9.86-4.05c-2.23-2.72-3.43-6.59-3.43-11.74s1.08-9.5,3.37-12.4c2.29-2.6,5.53-4.05,9.86-4.05ZM1077.13,390.49c-3.43,0-5.95,1.21-7.7,3.63-1.68,2.36-2.53,5.81-2.53,10.41,0,8.83,3.43,13.25,10.28,13.25,3.55,0,6.07-1.03,7.7-3.09,1.68-2.06,2.47-5.44,2.47-10.16v-.48c0-4.84-.78-8.29-2.47-10.34-1.56-2.18-4.15-3.21-7.76-3.21ZM1113.15,420.32c-4.51,0-8-1.39-10.58-4.23-2.53-2.78-3.79-6.72-3.79-11.74s1.2-9.01,3.67-11.98c2.47-3.02,5.71-4.54,9.86-4.54,3.61,0,6.55,1.27,8.6,3.81,2.16,2.54,3.19,6.05,3.19,10.47v2.3h-22.37c.06,4.3,1.02,7.56,3.01,9.86,1.98,2.3,4.75,3.33,8.42,3.33,1.74,0,3.37-.12,4.69-.36.96-.18,2.1-.48,3.49-.97.78-.3,1.62.3,1.62,1.15,0,.48-.3.97-.78,1.15-1.44.6-2.83.97-4.09,1.21-1.5.42-3.13.54-4.93.54ZM1112.31,390.43c-3.01,0-5.41.97-7.22,2.96-1.8,1.94-2.83,4.84-3.19,8.53h19.24c0-3.57-.78-6.47-2.35-8.47-1.56-2-3.73-3.03-6.49-3.03ZM1155.84,419.77c-.78,0-1.38-.61-1.38-1.39v-18.94c0-3.15-.66-5.44-1.92-6.84-1.38-1.39-3.37-2.18-6.13-2.18-3.73,0-6.43.91-8.12,2.84-1.68,1.88-2.65,4.96-2.65,9.14v15.85c0,.79-.6,1.39-1.38,1.39s-1.38-.61-1.38-1.39v-28.49c0-.73.54-1.27,1.26-1.27.66,0,1.14.48,1.26,1.09l.36,3.15h.18c2.04-3.27,5.59-4.9,10.76-4.9,7.03,0,10.58,3.81,10.58,11.43v19c-.06.85-.72,1.51-1.44,1.51ZM929.69,374.52c-2.83,0-5.11,2.18-5.11,4.9v.48c0,2.66,2.35,4.9,5.11,4.9s5.11-2.24,5.11-4.9v-.42c0-2.78-2.35-4.96-5.11-4.96Z"/>
  <path class="st1" d="M1054.33,312.78v-44.48h-31.05v79.02c5.5-2.92,10.42-6.09,14.77-9.52,10.86-8.53,16.29-16.86,16.29-25.02ZM1067.64,259.41v53.38c0,3.98-.77,7.93-2.32,11.85-1.55,3.91-3.47,7.39-5.75,10.42-2.29,3.03-5.01,5.99-8.18,8.86s-6.09,5.26-8.77,7.16c-2.68,1.9-5.48,3.69-8.39,5.39-2.91,1.69-4.98,2.84-6.2,3.44-1.22.6-2.21,1.07-2.95,1.39-.55.28-1.16.42-1.8.42s-1.25-.14-1.8-.42c-.74-.32-1.72-.79-2.95-1.39-1.22-.6-3.29-1.75-6.2-3.44-2.91-1.69-5.71-3.49-8.39-5.39-2.68-1.9-5.6-4.29-8.77-7.16-3.17-2.87-5.89-5.83-8.18-8.86-2.29-3.03-4.21-6.51-5.75-10.42-1.55-3.92-2.32-7.87-2.32-11.85v-53.38c0-1.2.44-2.25,1.32-3.13.88-.88,1.92-1.32,3.12-1.32h79.86c1.2,0,2.24.44,3.12,1.32.88.88,1.32,1.92,1.32,3.13Z"/>
  <path class="st1" d="M1072.92,612.54v-71.41h-49.91v126.87c8.84-4.69,16.75-9.78,23.73-15.29,17.45-13.69,26.18-27.08,26.18-40.17ZM1094.31,526.84v85.7c0,6.4-1.24,12.74-3.73,19.02-2.49,6.29-5.57,11.86-9.25,16.74-3.68,4.87-8.06,9.61-13.15,14.23-5.09,4.61-9.78,8.44-14.09,11.49-4.31,3.05-8.8,5.93-13.48,8.65-4.68,2.72-8,4.56-9.97,5.52-1.97.97-3.55,1.71-4.73,2.23-.89.45-1.86.67-2.9.67s-2.01-.22-2.9-.67c-1.19-.52-2.77-1.26-4.73-2.23-1.97-.97-5.29-2.81-9.97-5.52-4.68-2.71-9.17-5.6-13.48-8.65-4.31-3.05-9.01-6.88-14.09-11.49-5.09-4.61-9.47-9.35-13.15-14.23-3.68-4.87-6.76-10.45-9.25-16.74-2.49-6.29-3.73-12.63-3.73-19.02v-85.7c0-1.93.71-3.61,2.12-5.02,1.41-1.41,3.08-2.12,5.01-2.12h128.34c1.93,0,3.6.71,5.01,2.12,1.41,1.41,2.12,3.09,2.12,5.02Z"/>
  <path class="st0" d="M886.25,120.65c6.05,0,10.75,2.3,14.21,7.09,3.46,4.7,5.18,11.12,5.18,19.27s-1.73,14.96-5.28,19.56c-3.55,4.7-8.35,6.9-14.4,6.9s-10.66-2.11-14.11-6.52h-.96l-1.82,4.51c-.29.67-.96,1.05-1.63,1.05h-7.68c-.96,0-1.73-.77-1.73-1.73v-67.39c0-.96.77-1.73,1.73-1.73h10.37c.96,0,1.73.77,1.73,1.73v14.76c0,2.11-.19,5.46-.58,10.07h.58c3.17-4.99,8.06-7.57,14.4-7.57ZM881.83,131.87c-3.36,0-5.95,1.05-7.58,3.16-1.54,2.11-2.4,5.66-2.4,10.45v1.53c0,5.46.77,9.39,2.4,11.7,1.63,2.3,4.22,3.55,7.78,3.55,2.78,0,5.18-1.34,6.82-4.03,1.63-2.59,2.5-6.52,2.5-11.41s-.86-8.72-2.5-11.22c-1.73-2.49-4.13-3.74-7.01-3.74ZM928.48,172.61h-10.37c-.96,0-1.73-.77-1.73-1.73v-47.45c0-.96.77-1.73,1.73-1.73h10.37c.96,0,1.73.77,1.73,1.73v47.36c.1.86-.77,1.82-1.73,1.82ZM966.4,162.36c2.01,0,4.41-.38,7.29-1.15.77-.19,1.44.38,1.44,1.15v7.96c0,.48-.29.86-.67,1.05-3.26,1.34-7.39,2.01-12,2.01-5.57,0-9.6-1.34-12.1-4.22-2.5-2.78-3.84-7-3.84-12.56v-24.45h-5.47c-.67,0-1.15-.48-1.15-1.15v-4.51c0-.1.1-.19.1-.29l7.58-4.51,3.74-9.97c.19-.48.58-.77,1.06-.77h6.91c.67,0,1.15.48,1.15,1.15v9.68h13.73c.29,0,.58.29.58.58v8.63c0,.67-.48,1.15-1.15,1.15h-13.05v24.35c0,1.92.58,3.45,1.63,4.31.96,1.05,2.5,1.53,4.22,1.53ZM1031,172.61c-1.34,0-2.4-.86-2.98-2.11l-10.18-30.96c-.67-2.2-1.54-5.56-2.69-9.87h-.29l-.96,3.45-2.02,6.52-10.46,30.96c-.38,1.25-1.54,2.01-2.88,2.01s-2.5-.86-2.88-2.21l-12.77-44.58c-.38-1.34.67-2.78,2.21-2.78h.29c.96,0,1.82.67,2.11,1.63l7.49,27.13c1.82,7.09,3.07,12.27,3.65,15.72h.29c1.73-7.09,3.07-11.79,3.94-14.19l9.7-28.38c.38-1.15,1.44-1.92,2.78-1.92,1.25,0,2.3.77,2.69,1.92l9.02,28.18c2.21,7.19,3.55,11.79,4.03,14.19h.29c.29-1.92,1.44-7.29,3.65-15.91l7.2-26.75c.29-.96,1.15-1.63,2.11-1.63,1.44,0,2.49,1.34,2.11,2.78l-12.1,44.58c-.38,1.34-1.54,2.21-2.98,2.21h-.38ZM1088.02,172.61c-.86,0-1.63-.67-1.73-1.53l-.86-6.33h-.48c-2.5,3.16-4.99,5.46-7.68,6.81-2.59,1.34-5.76,1.92-9.31,1.92-4.9,0-8.64-1.25-11.33-3.74-2.4-2.2-3.74-5.18-3.94-8.92-.38-4.99,1.73-9.78,5.76-12.56,4.13-2.68,9.89-4.31,17.66-4.31l9.41-.29v-3.26c0-4.79-.96-8.24-2.98-10.64-2.02-2.4-4.99-3.55-9.22-3.55s-8.06.96-12.29,2.97c-1.06.48-2.3,0-2.78-1.05-.48-1.05,0-2.3,1.05-2.68,4.8-1.92,9.5-2.97,14.3-2.97,5.47,0,9.5,1.44,12.29,4.31,2.69,2.78,4.03,7.29,4.03,13.13v31.16c-.1.58-.96,1.53-1.92,1.53ZM1068.15,169.35c5.38,0,9.5-1.53,12.48-4.51,3.07-2.97,4.61-7.29,4.61-12.56v-4.79l-8.64.38c-7.01.29-11.9,1.44-14.98,3.26-2.98,1.82-4.51,4.79-4.51,8.63,0,3.07.96,5.56,2.78,7.29,2.11,1.44,4.8,2.3,8.26,2.3ZM1124.98,122.09c1.44,0,2.88.1,4.51.29,1.25.19,2.02,1.34,1.82,2.49s-1.34,1.82-2.5,1.63c-1.44-.19-2.88-.38-4.32-.38-4.22,0-7.68,1.82-10.37,5.37-2.69,3.55-4.03,8.15-4.03,13.52v25.12c0,1.25-.96,2.2-2.21,2.2s-2.21-.96-2.21-2.2v-45.06c0-1.05.86-1.92,1.92-1.92s1.92.77,1.92,1.82l.38,7.09h.29c2.02-3.64,4.22-6.23,6.53-7.67,2.21-1.53,4.99-2.3,8.26-2.3ZM1158.77,122.09c3.55,0,6.72.67,9.31,1.92,2.69,1.25,4.99,3.55,7.01,6.71h.29c-.19-3.93-.29-7.57-.29-11.22v-15.63c0-1.25.96-2.2,2.21-2.2s2.21.96,2.21,2.2v67.01c0,.86-.67,1.53-1.54,1.53-.77,0-1.44-.58-1.54-1.44l-.96-6.23h-.38c-3.74,5.66-9.22,8.44-16.22,8.44s-12-2.11-15.74-6.42c-3.55-4.31-5.47-10.45-5.47-18.6s1.73-15.05,5.38-19.65c3.65-4.12,8.83-6.42,15.74-6.42ZM1158.77,126.21c-5.47,0-9.5,1.92-12.29,5.75-2.69,3.74-4.03,9.2-4.03,16.49,0,14,5.47,20.99,16.41,20.99,5.66,0,9.7-1.63,12.29-4.89,2.69-3.26,3.94-8.63,3.94-16.11v-.77c0-7.67-1.25-13.13-3.94-16.39-2.5-3.45-6.62-5.08-12.38-5.08ZM1216.27,173.48c-7.2,0-12.77-2.2-16.9-6.71-4.03-4.41-6.05-10.64-6.05-18.6s1.92-14.28,5.86-18.98c3.94-4.79,9.12-7.19,15.74-7.19,5.76,0,10.46,2.01,13.73,6.04,3.46,4.03,5.09,9.59,5.09,16.58v3.64h-35.71c.1,6.81,1.63,11.98,4.8,15.63,3.17,3.64,7.58,5.27,13.44,5.27,2.78,0,5.38-.19,7.49-.58,1.54-.29,3.36-.77,5.57-1.53,1.25-.48,2.59.48,2.59,1.82,0,.77-.48,1.53-1.25,1.82-2.3.96-4.51,1.53-6.53,1.92-2.4.67-4.99.86-7.87.86ZM1214.93,126.12c-4.8,0-8.64,1.53-11.52,4.7-2.88,3.07-4.51,7.67-5.09,13.52h30.72c0-5.66-1.25-10.26-3.74-13.42-2.5-3.16-5.95-4.79-10.37-4.79ZM1284.43,172.61c-1.25,0-2.21-.96-2.21-2.21v-30.01c0-4.99-1.06-8.63-3.07-10.83-2.21-2.2-5.38-3.45-9.79-3.45-5.95,0-10.27,1.44-12.96,4.51-2.69,2.97-4.22,7.86-4.22,14.48v25.12c0,1.25-.96,2.2-2.21,2.2s-2.21-.96-2.21-2.2v-45.15c0-1.15.86-2.01,2.02-2.01,1.06,0,1.82.77,2.02,1.73l.58,4.99h.29c3.26-5.18,8.93-7.77,17.18-7.77,11.23,0,16.89,6.04,16.89,18.12v30.1c-.1,1.34-1.15,2.4-2.3,2.4ZM923.4,100.91c-4.51,0-8.16,3.45-8.16,7.77v.77c0,4.22,3.74,7.77,8.16,7.77s8.16-3.55,8.16-7.77v-.67c0-4.41-3.74-7.86-8.16-7.86Z"/>
  <path class="st1" d="M817.58,146.15v-34.28h-23.99v60.9c4.25-2.25,8.05-4.7,11.41-7.34,8.39-6.57,12.59-13,12.59-19.28ZM827.86,105.02v41.13c0,3.07-.6,6.11-1.79,9.13-1.2,3.02-2.68,5.7-4.45,8.03-1.77,2.34-3.87,4.62-6.32,6.83s-4.7,4.05-6.78,5.52c-2.07,1.46-4.23,2.85-6.48,4.15-2.25,1.3-3.85,2.19-4.79,2.65-.95.46-1.71.82-2.28,1.07-.43.21-.89.32-1.39.32s-.96-.11-1.39-.32c-.57-.25-1.33-.61-2.28-1.07-.95-.46-2.54-1.35-4.79-2.65-2.25-1.3-4.41-2.69-6.48-4.15-2.07-1.46-4.33-3.3-6.78-5.52s-4.55-4.49-6.32-6.83-3.25-5.02-4.45-8.03c-1.2-3.02-1.79-6.06-1.79-9.13v-41.13c0-.93.34-1.73,1.02-2.41.68-.68,1.48-1.02,2.41-1.02h61.7c.93,0,1.73.34,2.41,1.02.68.68,1.02,1.48,1.02,2.41Z"/>
</svg>